<?xml version="1.0" encoding="UTF-8" standalone="no"?>
<svg width="130px" height="34px" viewBox="0 0 130 34" version="1.1" xmlns="http://www.w3.org/2000/svg" xmlns:xlink="http://www.w3.org/1999/xlink">
    <!-- Generator: sketchtool 3.7 (28169) - http://www.bohemiancoding.com/sketch -->
    <title>petlogue_logo</title>
    <desc>Created with sketchtool.</desc>
    <defs>
        <rect id="path-1" x="0" y="0" width="130" height="34"></rect>
        <polygon id="path-3" points="0 0.0468179064 0 18.8128216 24.3154717 18.8128216 24.3154717 0.0468179064 1.80149347e-21 0.0468179064"></polygon>
    </defs>
    <g id="Page-1" stroke="none" stroke-width="1" fill="none" fill-rule="evenodd">
        <g id="PD-GUIDE-Homepage-0001" transform="translate(-34.000000, -199.000000)">
            <g id="petlogue_logo" transform="translate(34.000000, 199.000000)">
                <mask id="mask-2" fill="white">
                    <use xlink:href="#path-1"></use>
                </mask>
                <g id="Mask"></g>
                <g id="Group-5-Copy" mask="url(#mask-2)">
                    <g transform="translate(1.000000, 2.000000)">
                        <g id="Group-3" stroke-width="1" fill="none" transform="translate(0.000000, 10.017409)">
                            <mask id="mask-4" fill="white">
                                <use xlink:href="#path-3"></use>
                            </mask>
                            <g id="Clip-2"></g>
                            <path d="M22.1792015,9.92543136 C22.1874429,9.98499442 22.1922283,10.0308327 22.1792015,9.92543136 M22.0664796,9.44066532 C22.087482,9.48916858 22.1010405,9.52448001 22.0664796,9.44066532 M21.8729382,9.05943508 C21.9257102,9.07835668 21.9647906,9.09834428 21.8729382,9.05943508 M12.8005542,15.5495435 C12.7733042,15.6139036 12.7449908,15.6742662 12.8005542,15.5495435 M22.985801,7.27054447 C22.5682781,6.96420112 22.1108771,6.95407406 21.6248969,6.90770282 C21.5806323,6.89997428 21.5366335,6.89131298 21.4926348,6.88225194 C21.3827044,6.85946607 21.2743691,6.82975116 21.1668313,6.7980375 C21.0507862,6.76392532 20.936868,6.7226176 20.8237473,6.67957763 C20.8224181,6.67904462 20.8218864,6.67877812 20.8205571,6.67837837 C20.7449218,6.64453269 20.6703499,6.60842175 20.5961767,6.57137806 C20.3291269,6.43826061 20.074838,6.28049179 19.8283918,6.11259591 C19.7609979,6.06662442 19.6950663,6.01852092 19.6292675,5.97055067 C19.6146456,5.95989061 19.6028151,5.95136257 19.5929785,5.94430028 C19.5869968,5.93950325 19.5820785,5.93563898 19.5749005,5.9299092 C19.4090079,5.79812426 19.2500275,5.65807778 19.0935727,5.51536628 C18.7936899,5.24193585 18.5144108,4.94638581 18.2457658,4.64230772 C17.8924465,4.24228912 17.6949174,3.97685373 17.4006175,3.55738054 C16.9228788,2.87646948 16.4766436,2.20768423 15.8229098,1.68107747 C15.1912419,1.17232631 14.5130496,0.80562039 13.7535061,0.523395414 C12.4731556,0.0474239231 11.0202661,-0.0445190579 9.67305347,0.126441587 C7.44746079,0.409066315 5.4578131,1.41923985 3.94909442,3.10552742 C3.85976764,3.20546545 3.770175,3.30500372 3.67380311,3.39827921 C3.66144092,3.41027177 3.64455922,3.4250626 3.62701289,3.43998667 C3.60109217,3.45664301 3.57463974,3.4728996 3.54805439,3.48848993 C2.88062915,3.88184599 2.27634412,4.33276635 1.7680322,4.92386644 C0.996259453,5.82130989 0.455114628,6.90197304 0.0507514356,8.00755407 C-0.148904552,8.55361543 0.269548876,9.17443043 0.79354615,9.31887419 C1.3874629,9.48263929 1.90228822,9.11939789 2.10167836,8.57440254 C2.29987215,8.0323387 2.62780246,7.36435296 3.0184742,6.78364642 C3.04771808,6.74020669 3.07775953,6.69743322 3.10859854,6.65519275 C3.12654365,6.63054137 3.23740456,6.48183359 3.25521675,6.45358444 C3.37086303,6.31407096 3.49461784,6.18148652 3.62236045,6.0531661 C3.69905919,5.9761472 3.78001158,5.90339231 3.86096398,5.83077068 C3.90841883,5.78906322 3.9569371,5.74842175 4.00585414,5.70831329 C4.02100779,5.69751999 4.04506754,5.6799309 4.07976142,5.65434676 C4.51243801,5.34227363 4.97090239,5.13866656 5.34030585,4.73811497 C5.66703982,4.38406786 5.98898842,4.04041432 6.36277846,3.73393771 C6.37806503,3.72141215 6.38989552,3.71168485 6.39959917,3.70355655 C6.40823941,3.69702727 6.41674672,3.69076449 6.42791257,3.68223644 C6.5075357,3.62200713 6.58888687,3.56404307 6.67010512,3.50594577 C6.85872819,3.37122932 7.05280125,3.2445079 7.2478048,3.1193855 C7.48281931,2.96867896 7.7262082,2.83702727 7.9800983,2.72149892 C8.0367251,2.6988463 8.09388361,2.67725968 8.15104211,2.65593957 C8.27798716,2.60863557 8.40692612,2.56666161 8.53613092,2.52628664 C8.83229174,2.43381066 9.13470011,2.36265479 9.43896945,2.30335823 C9.54278525,2.28323737 9.64713275,2.26618128 9.75161318,2.2501912 C9.78457902,2.24619368 9.86925336,2.23500062 9.89956066,2.23166935 C9.97586062,2.22327456 10.0522935,2.21674527 10.1285935,2.21021599 C10.4652969,2.18170034 10.8035955,2.17610381 11.1412295,2.18569786 C11.2991465,2.19009513 11.4566647,2.20115494 11.61405,2.21434676 C11.6894194,2.2207428 11.7645231,2.22927084 11.8396267,2.23779888 C11.8509254,2.23953114 11.8648828,2.24179641 11.8820303,2.24446142 C12.2223228,2.29696219 12.5578299,2.37744562 12.8870895,2.47765014 C13.0391577,2.52388813 13.1884345,2.57825442 13.3366478,2.63541896 C13.3426295,2.63781748 13.3463515,2.63914998 13.3515356,2.64114874 C13.3589795,2.64461326 13.3656258,2.64754478 13.3751966,2.6518088 C13.4477746,2.68418872 13.5191562,2.71950015 13.590405,2.75481159 C13.7331683,2.82556771 13.8715451,2.90498513 14.0079279,2.98746731 C14.0763852,3.02890827 14.1431144,3.07314751 14.2097107,3.11751999 C14.2362961,3.13524233 14.3540692,3.22238829 14.3903582,3.24757267 C14.621119,3.43598915 14.8331372,3.64652526 15.0289383,3.87078618 C15.042231,3.88597676 15.0928761,3.94927084 15.1203919,3.98298327 C15.1556175,4.03148652 15.1908431,4.07998977 15.2248724,4.12942578 C15.3874418,4.36527952 15.543099,4.60553052 15.7095233,4.83898575 C16.6945106,6.22079548 17.8923136,7.52931732 19.3982408,8.3474766 C19.9062869,8.62357205 20.4624524,8.84956523 21.0316448,8.95896405 C21.2895227,9.00840006 21.5551104,9.04237899 21.8183053,9.05077378 C21.8301358,9.06236659 21.8427639,9.0731599 21.8543285,9.08488596 C21.8677541,9.09821103 21.878787,9.10900434 21.8883577,9.11806539 C21.9439211,9.19881531 21.9907113,9.28516176 22.034976,9.37244097 C22.0526552,9.42081097 22.0703345,9.46904772 22.0858869,9.51808398 C22.1205808,9.6272163 22.145571,9.73928014 22.1675039,9.85161047 C22.1680356,9.85440874 22.1687003,9.85760676 22.169232,9.86080477 C22.1730869,9.90357825 22.1770747,9.94635172 22.1798661,9.98912519 C22.1879746,10.1165129 22.185449,10.2444335 22.1796003,10.3718212 C22.1785368,10.3946071 22.1757454,10.4173929 22.1738844,10.4401788 C22.1675039,10.4868165 22.1550088,10.5847558 22.1476978,10.6217995 C22.1107442,10.8092832 22.0541174,10.9922364 21.9893821,11.1718584 C21.9856601,11.1813192 21.9828687,11.1885147 21.9799443,11.19611 C21.9694431,11.2190291 21.9593406,11.2419482 21.9484406,11.2646009 C21.9036443,11.3596086 21.8524675,11.4512851 21.8006261,11.5425618 C21.7466578,11.6373031 21.686442,11.7284465 21.6255615,11.8187905 C21.6040274,11.8501044 21.5814299,11.8807521 21.5590982,11.911533 C21.5516543,11.9207273 21.543014,11.9313874 21.5327787,11.9443127 C21.3767227,12.1348612 21.2011264,12.3084868 21.0195485,12.4742507 C20.9982802,12.4937053 20.8052705,12.6522736 20.8065998,12.6554716 C20.7071706,12.729559 20.6049499,12.7997822 20.5017987,12.8685395 C20.2247794,13.0533582 19.9343344,13.2173898 19.6381736,13.3691624 C19.2556104,13.5653074 18.7679021,13.7372008 18.2193134,13.8515299 C18.1863476,13.8583257 17.9998513,13.8860418 17.9632965,13.8933706 C17.8790209,13.9016322 17.7943466,13.9080282 17.7098052,13.9130917 C17.494198,13.9258838 17.2777932,13.9202873 17.0624519,13.9061627 C17.0309482,13.9041639 16.9312531,13.8927044 16.8747593,13.8867081 C16.8106886,13.876048 16.7466179,13.8657877 16.6830789,13.8532622 C16.5046912,13.8184837 16.328962,13.771313 16.1549609,13.7190787 C15.9961134,13.6715082 15.8400574,13.6146102 15.6855965,13.5542476 C15.679216,13.5517158 15.6750953,13.5501168 15.6695124,13.5479848 C15.6071697,13.5205352 15.5454917,13.491753 15.4838137,13.4627044 C15.4496515,13.446581 15.416154,13.4289919 15.3822577,13.4123356 C15.4170845,12.7937859 15.3667052,12.1745699 15.2513248,11.5644149 C15.0541944,10.5223945 14.5309947,9.69197614 13.8618414,8.89766873 C13.7980366,8.82184909 13.7360927,8.74443043 13.6741488,8.66687852 C13.6478293,8.6331661 13.6135342,8.58919337 13.6023684,8.57413604 C13.5511916,8.50537868 13.5017428,8.43542206 13.452427,8.3653322 C13.2372186,8.05978835 13.0460699,7.73812117 12.8764554,7.40512767 C12.7379457,7.13302975 12.6730774,6.96739913 12.5610202,6.53619988 C12.5352324,6.43692811 12.5162239,6.33605733 12.4972153,6.2353198 C12.4946897,6.22146173 12.4925629,6.21106817 12.4904361,6.20014162 C12.4899044,6.18255253 12.4880434,6.15417013 12.4841885,6.10793214 C12.4661105,5.89686303 12.4740861,5.68472792 12.4917653,5.47405857 C12.5402836,4.89415153 11.9712242,4.40805299 11.4283513,4.40805299 C10.8119699,4.40805299 10.4133226,4.89521754 10.3649372,5.47405857 C10.2126032,7.29226433 11.1628966,8.9399092 12.2685813,10.2973341 C12.3516605,10.3994041 12.4372654,10.4994754 12.5234019,10.5991469 C12.5478604,10.6275293 12.5970433,10.6890911 12.6313384,10.7321311 C12.7343567,10.8807056 12.8255444,11.0374084 12.907959,11.1983753 C12.9312212,11.2438138 12.9524895,11.290185 12.9737578,11.336423 C13.0214785,11.4584806 13.0612236,11.5832033 13.0984431,11.7087254 C13.1396503,11.8477059 13.1715528,11.9892182 13.2005308,12.1312634 C13.2079747,12.1679073 13.2134247,12.204951 13.2198052,12.2418615 C13.2206027,12.2607831 13.245593,12.4418708 13.249182,12.4825122 C13.2813503,12.8521497 13.2719125,13.2243189 13.2434661,13.5936898 C13.2372186,13.6739067 13.2277808,13.7537239 13.2186088,13.8336743 C13.2188747,13.8130205 13.1865735,14.0447434 13.1855101,14.0504732 C13.1399162,14.3233706 13.0773077,14.59307 13.0092492,14.8610372 C12.9559456,15.07144 12.8961285,15.2811766 12.8255444,15.486516 C12.8235505,15.4921125 12.820892,15.499308 12.8178347,15.5070366 C12.7945725,15.5562061 12.769981,15.6048426 12.7443262,15.6528128 C12.702986,15.7306312 12.6549994,15.8044521 12.6052848,15.8770738 C12.6322689,15.8281707 12.4335434,16.0689548 12.3757203,16.1237208 C12.3491349,16.1489052 12.3206886,16.1719575 12.292774,16.1956762 C12.2786837,16.2064695 12.2649923,16.2167298 12.2547569,16.2239253 C12.152935,16.2944149 12.0448656,16.3553105 11.9354669,16.4127416 C11.9078181,16.4272659 11.8793718,16.4396582 11.8511913,16.4529833 C11.8271316,16.4631103 11.8018755,16.4735039 11.7852596,16.4796334 C11.6439585,16.5314679 11.4982708,16.5705104 11.3519184,16.6050223 C11.3007416,16.6170149 11.1216893,16.6439315 11.0624039,16.6543251 C10.9652345,16.6627199 10.8677992,16.6687161 10.7703638,16.6719142 C10.6311895,16.6765779 10.4918823,16.6723139 10.3528409,16.6653849 C10.2822568,16.6619204 10.2116727,16.6555243 10.1412215,16.6492615 C10.1196874,16.6472628 10.1024069,16.645797 10.0875191,16.6445978 C10.0815374,16.643665 10.0762203,16.6427323 10.0682447,16.641533 C9.63889129,16.5750409 9.21990616,16.451251 8.81527711,16.2936154 C8.77539908,16.2750936 8.65297354,16.2221931 8.62173575,16.2071357 C8.50608948,16.1518367 8.39323466,16.0909411 8.2811774,16.0288463 C8.05746167,15.9045234 7.84411423,15.7624782 7.63754605,15.6116384 C7.60378265,15.584322 7.57028511,15.5567391 7.53705342,15.5287564 C7.43602909,15.4442755 7.33952426,15.3544645 7.24434871,15.2634543 C7.14850851,15.1717778 7.05758661,15.0749046 6.96825983,14.9769653 C6.94021229,14.9461844 6.81539406,14.7934791 6.78123189,14.7551029 C6.65202708,14.5800115 6.53385519,14.3970583 6.42538696,14.2085085 C6.31917848,14.0239563 6.22174317,13.8344738 6.12630176,13.6440586 C6.09041153,13.5713037 6.05531887,13.4980158 6.02102377,13.4244614 C6.02820181,13.439652 5.92770918,13.2107273 5.92425309,13.2076625 C5.80834096,12.923039 5.71090565,12.6310868 5.62649715,12.33567 C5.58130206,12.1777679 5.54461427,12.0176006 5.51018624,11.8571667 C5.49941918,11.8070645 5.45249603,11.5108482 5.44943872,11.5141794 C5.42391678,11.2865872 5.41328264,11.0575293 5.41275093,10.8287378 C5.41248508,10.6962866 5.41939727,10.5638355 5.42817043,10.431784 C5.43082897,10.3912758 5.44903994,10.245766 5.45701554,10.1771419 C5.52268136,9.78152061 5.63420691,9.39429408 5.77697024,9.02012612 C5.78361658,9.00280353 5.78906658,8.98827921 5.79358609,8.97628664 C5.79850438,8.96536009 5.8040873,8.95296777 5.81099949,8.93737744 C5.85021289,8.84943198 5.89208481,8.76255253 5.93462138,8.67607282 C6.01278231,8.51683824 6.09758958,8.36080167 6.18425782,8.20609761 C6.46818938,7.69934521 6.30881019,7.04481779 5.80275803,6.74753548 C5.30920099,6.45784847 4.63127453,6.62414534 4.34787469,7.13009823 C3.74425429,8.20703037 3.35743743,9.34832259 3.29190453,10.5882203 C3.19978629,12.3348705 3.85458349,14.1902532 4.80354761,15.633225 C6.32555897,17.9473898 9.44136213,19.3834326 12.1682216,18.5951215 C13.3851661,18.2433396 14.3136595,17.4018615 14.802697,16.2400487 C14.8962774,16.0176532 14.9723115,15.7867298 15.0374456,15.5515423 C15.6324258,15.7808667 16.2417621,15.9512944 16.9091873,16.0247155 C18.6759168,16.218995 20.5205414,15.5038385 21.9222541,14.4656824 C23.2537814,13.479494 24.1628675,12.111409 24.3021747,10.437114 C24.4004076,9.25677936 23.9536408,7.98077068 22.985801,7.27054447" id="Fill-1" fill="#F16465" mask="url(#mask-4)"></path>
                        </g>
                    </g>
                    <g transform="translate(1.000000, 2.000000)">
                        <path d="M16.3815744,16.7348835 C16.3779854,16.7139631 16.371472,16.696374 16.3637622,16.6802507 C16.2067757,16.212674 15.772637,15.9764205 15.2863909,16.0454444 C14.750829,16.1215305 14.4958755,16.694775 14.5769608,17.1754103 C14.663629,17.6893582 15.2079641,17.9306752 15.6721443,17.8647161 C16.1859062,17.791828 16.4405939,17.2612237 16.3888854,16.7937803 C16.3890183,16.7751252 16.3874232,16.7556706 16.3815744,16.7348835" id="Fill-4" fill="#F16465"></path>
                    </g>
                    <g transform="translate(1.000000, 2.000000)">
                        <path d="M21.8785876,10.4616272 C21.8829742,10.4433719 21.8856327,10.4240505 21.8844364,10.4020641 C21.8856327,10.3804775 21.8829742,10.3612894 21.8788535,10.3433006 C21.8266133,9.84854075 21.4613305,9.49902417 20.9564747,9.47184103 C20.4328762,9.44345863 20.0545667,9.91863062 20.028513,10.4020641 C20.0003326,10.9268054 20.4742164,11.3061701 20.9564747,11.332154 C21.4585391,11.3593372 21.8262145,10.9237406 21.8785876,10.4616272" id="Fill-6" fill="#F16465"></path>
                    </g>
                    <g transform="translate(1.000000, 2.000000)">
                        <path d="M14.2531113,6.58047412 C14.2927235,6.57407809 14.3013637,6.57367834 14.2531113,6.58047412 M25.7157843,12.379811 C25.6287173,12.0376232 25.4273332,11.7412736 25.2218285,11.4619802 C25.1255895,11.3309947 25.0350664,11.1981438 24.9563737,11.0556988 C24.9561079,11.055299 24.955975,11.0551658 24.955842,11.054766 C24.9527847,11.0411745 24.9483981,11.0239851 24.9409542,10.9986675 C24.9381628,10.9894732 24.9361689,10.9832104 24.9337762,10.9756151 C24.9336433,10.9604245 24.9332445,10.9419027 24.9317823,10.9155191 C24.8836628,10.0609823 25.0980737,9.21537341 24.5819191,8.44651689 C24.4214765,8.20746514 24.2305936,8.02850945 24.0072767,7.85528355 C23.9539731,7.81384258 23.9004036,7.77240161 23.8468341,7.7310939 C23.8408524,7.72629687 23.8326109,7.71963434 23.8187866,7.70884103 C23.7411573,7.64754571 23.6661866,7.58318562 23.5934757,7.51602727 C23.5409696,7.46765727 23.4924514,7.41542299 23.4451294,7.36212271 C23.4134929,7.31561822 23.3857112,7.26658196 23.3583283,7.21767896 C23.3502197,7.20328788 23.3395856,7.18090177 23.3294832,7.15904865 C23.3167222,7.1210722 23.3046259,7.08282925 23.2929283,7.0445863 C23.2707295,6.97183142 23.2550442,6.89707778 23.239093,6.82285714 C23.2356369,6.80646731 23.229921,6.76436009 23.2248698,6.72625039 C23.2107796,6.57554385 23.2074564,6.42363805 23.2073235,6.27239851 C23.2071906,6.15833592 23.213571,6.04427332 23.2196857,5.93034397 C23.2203503,5.91755191 23.2207491,5.90795786 23.2210149,5.89836381 C23.2218125,5.89396653 23.2224771,5.89103502 23.2232747,5.88610474 C23.2838893,5.53019213 23.4055173,5.18400682 23.5341904,4.84808181 C23.5425648,4.8264952 23.5514709,4.80517509 23.5599782,4.78372172 C23.5619721,4.78052371 23.6143452,4.65446855 23.6260428,4.62821816 C23.6843976,4.49683297 23.7463415,4.36731329 23.8094817,4.23819337 C23.8691658,4.11653548 23.9308438,3.99554385 23.9963767,3.87695073 C24.2836314,3.35740626 24.1144157,2.73126123 23.6148769,2.4183886 C23.1203894,2.10871398 22.4706434,2.00104741 21.9017169,1.98052681 C21.0882051,1.95121165 20.317097,2.17227456 19.6015523,2.5243229 C19.6010206,2.51859312 19.6004889,2.51352959 19.5999572,2.50793306 C19.5769608,2.24569569 19.5611426,1.98132631 19.5615413,1.71802293 C19.562206,1.15397273 19.0771562,0.629497986 18.4981273,0.652017354 C16.9285281,0.713046173 15.4063839,1.31360707 14.3878991,2.54604276 C13.8959371,3.14140688 13.4830666,3.85309885 13.2758338,4.61262783 C11.7628615,5.03423303 10.5391378,6.25680818 10.221044,7.84808801 C10.1072587,8.41733499 10.3756378,8.99737527 10.9637058,9.15940812 C11.4922226,9.30518438 12.1579198,8.98498296 12.271838,8.41493647 C12.2957648,8.29554385 12.3235465,8.17801673 12.3561136,8.06062287 C12.3694063,8.01291912 12.4555428,7.79878525 12.4647147,7.76613883 C12.4979464,7.70071274 12.533172,7.6362194 12.5701257,7.57279207 C12.5939195,7.5318841 12.7011914,7.3883731 12.72565,7.35172916 C12.8046085,7.2629842 12.8896816,7.17970251 12.9790084,7.10148435 C12.9791413,7.10628138 13.1300132,6.99235203 13.1762717,6.96317013 C13.259085,6.91093585 13.3456204,6.86469786 13.4328203,6.81992563 C13.4507654,6.81073133 13.480541,6.79687326 13.5099178,6.78354819 C13.5628227,6.76342733 13.6154617,6.74290672 13.6688982,6.72478463 C13.8048823,6.67867989 13.9441895,6.64256895 14.0844273,6.61218779 C14.1184565,6.604859 14.1507577,6.59846297 14.179337,6.59326619 C14.1854516,6.59286644 14.1914333,6.59180043 14.1975479,6.59153393 C14.7905342,6.55835451 15.2416876,6.13115277 15.260962,5.52552835 C15.2614937,5.50580725 15.2638864,5.4862194 15.2650827,5.4664983 C15.2701339,5.43265262 15.2755839,5.39854044 15.2805022,5.37482182 C15.3167912,5.20412767 15.369829,5.0372978 15.4291143,4.87339944 C15.4361595,4.85434459 15.4436034,4.83542299 15.4509143,4.81650139 C15.4970399,4.71456461 15.5482167,4.61515959 15.6013874,4.51682058 C15.6598752,4.40902076 15.7246105,4.30468547 15.7913397,4.20181593 C15.8259007,4.14851565 15.8627214,4.09668113 15.8995421,4.04484661 C15.9000738,4.0440471 15.9003397,4.04364735 15.9008714,4.04284785 C16.0559969,3.85096684 16.2306627,3.67587543 16.4159626,3.51330958 C16.420615,3.50944531 16.4254004,3.50558104 16.4299199,3.50171676 C16.4543784,3.48279517 16.5191137,3.43149365 16.5438381,3.41403781 C16.6673271,3.32662535 16.7975953,3.2497397 16.9297245,3.17645181 C16.9682732,3.1551317 17.1537061,3.07011776 17.1903939,3.0502634 C17.2946084,3.01055469 17.4002852,2.97537651 17.5070254,2.94366284 C17.5612595,3.41883483 17.6444717,3.89120855 17.7513448,4.35198946 C17.7803228,4.60743105 17.8890569,4.8556771 18.0552153,5.02210722 C18.2696262,5.23717385 18.5183322,5.32671831 18.7695637,5.32392005 C18.8812222,5.33058258 18.9943429,5.32058878 19.1046721,5.29020762 C19.2923647,5.2383731 19.451478,5.13883483 19.5764291,5.0091819 C19.7481705,4.87832972 20.019474,4.70896808 20.2380056,4.58264642 C20.3585702,4.51282306 20.4833884,4.45059498 20.6088712,4.38983266 C20.6350578,4.3781066 20.654731,4.3691788 20.6696188,4.36238302 C20.7386078,4.33519988 20.8081285,4.30934924 20.8780479,4.28483111 C21.0820905,4.21354199 21.2927794,4.16317323 21.5051964,4.12479703 C21.5134378,4.12439727 21.522211,4.12386427 21.5336427,4.12306477 C21.2801514,4.77825844 21.1076124,5.46276728 21.0823564,6.16220019 C21.0559039,6.89841029 21.1811209,7.63781841 21.5218122,8.29367834 C21.7727779,8.77671212 22.1792679,9.11117137 22.5977214,9.43590332 C22.5808397,9.42284475 22.5622299,9.40832042 22.5405629,9.39166408 C22.5772507,9.42017973 22.6135397,9.44922839 22.6496957,9.47854354 C22.6833262,9.50585993 22.7706591,9.60526495 22.8105371,9.64364115 C22.8186456,9.68521537 22.82702,9.73318562 22.8310078,9.75064146 C22.8395151,9.90894329 22.8310078,10.0692439 22.8236969,10.2268795 C22.785414,11.0497025 22.8460286,11.7827146 23.3382563,12.473353 C23.4146892,12.5806198 23.4943123,12.6854881 23.5690172,12.7942206 C23.5928111,12.8289991 23.614744,12.8647103 23.6358793,12.9009544 C23.6435891,12.9174775 23.654622,12.9414627 23.6644586,12.9657143 C23.640133,13.0757794 23.603844,13.1833127 23.5642318,13.2888472 C23.6223208,13.1290796 23.4670624,13.476864 23.4356916,13.5334955 C23.3924905,13.6119802 23.3439722,13.6872668 23.2955868,13.7626867 C23.2866808,13.7765448 23.2232747,13.8635575 23.199082,13.8990022 C23.0943357,14.0262566 22.9802846,14.1453827 22.8601188,14.2578463 C22.8480225,14.2691726 22.7676018,14.3307344 22.730914,14.3597831 C22.6706982,14.3997583 22.6086214,14.4370685 22.5458799,14.4729129 C22.0428851,14.7600682 21.8739352,15.4343167 22.1643801,15.9313418 C22.4594775,16.4364952 23.1154711,16.6014596 23.6192635,16.3137713 C24.8677116,15.6010133 26.0991451,13.8868764 25.7157843,12.379811" id="Fill-8" fill="#F16465"></path>
                    </g>
                    <g transform="translate(1.000000, 2.000000)">
                        <path d="M38.6114875,19.9294224 C37.4049113,19.9294224 35.3807026,19.3513808 35.3807026,15.4803148 C35.3807026,11.6320347 37.3711479,11.0574577 38.5577851,11.0574577 C40.844524,11.0574577 42.0040441,12.5454682 42.0040441,15.4803148 C42.0040441,16.5808324 42.0040441,19.9294224 38.6114875,19.9294224 M38.6114875,8.55234459 C37.50341,8.55234459 36.4314887,8.89786365 35.5931196,9.52534118 L35.4019709,9.66858568 L35.2954966,9.45445181 C35.0681918,8.99766842 34.6117214,8.71397769 34.1039412,8.71397769 C33.3707172,8.71397769 32.7741419,9.31200682 32.7741419,10.0470177 L32.7741419,26.1578265 C32.7741419,26.8807115 33.3830794,27.4915327 34.1039412,27.4915327 C34.8250688,27.4915327 35.4344051,26.8807115 35.4344051,26.1578265 L35.4344051,21.3309532 L35.7478463,21.5502839 C36.3247485,21.9539002 37.2899296,22.4352017 38.6114875,22.4352017 C42.5320292,22.4352017 44.6911585,19.9652668 44.6911585,15.4803148 C44.6911585,11.0126855 42.5320292,8.55234459 38.6114875,8.55234459" id="Fill-37" fill="#F16465"></path>
                    </g>
                    <g transform="translate(1.000000, 2.000000)">
                        <path d="M52.7084763,11.0574577 C54.5196034,11.0574577 55.4506224,11.926652 55.638182,13.792828 L55.6603808,14.0126917 L49.4447257,14.0126917 L49.4904525,13.7749724 C49.8322072,11.9971416 50.94507,11.0574577 52.7084763,11.0574577 M58.3052245,14.2698655 C58.3052245,12.7859857 57.8615149,11.4161686 57.05558,10.4129241 C56.0638135,9.17835637 54.6012204,8.55234459 52.7084763,8.55234459 C48.9524979,8.55234459 46.7100235,11.1423384 46.7100235,15.4803148 C46.7100235,19.9652668 48.9357491,22.4352017 52.9771213,22.4352017 C55.7159442,22.4352017 57.2222702,21.0647183 57.4964981,20.7898221 C57.6477687,20.6381828 57.9291747,20.3560911 57.9291747,19.8373461 C57.9291747,19.146841 57.3688884,18.5850561 56.6800619,18.5850561 C56.3267426,18.5850561 56.1268208,18.6989854 55.9201197,18.8363669 L55.8985855,18.8516907 C55.1898201,19.383361 54.380429,19.9025057 52.9771213,19.9025057 C50.9666041,19.9025057 49.6760182,18.7304326 49.4363513,16.6871664 L49.4102976,16.4638382 L56.7599509,16.4638382 C58.1180636,16.4638382 58.3052245,15.4094255 58.3052245,14.2698655" id="Fill-39" fill="#F16465"></path>
                    </g>
                    <g transform="translate(1.000000, 2.000000)">
                        <path d="M65.7054431,11.4883105 C66.4213866,11.4883105 66.9820716,10.9261258 66.9820716,10.2085708 C66.9820716,9.49128231 66.4213866,8.92936412 65.7054431,8.92936412 L64.4335999,8.92936412 L64.4335999,6.57735606 C64.4335999,5.84221196 63.8367587,5.24431608 63.103136,5.24431608 C62.3822742,5.24431608 61.7733367,5.85473753 61.7733367,6.57735606 L61.7733367,8.92936412 L61.1978968,8.92936412 C60.482352,8.92936412 59.9217999,9.49128231 59.9217999,10.2085708 C59.9217999,10.9261258 60.482352,11.4883105 61.1978968,11.4883105 L61.7733367,11.4883105 L61.7733367,18.4390666 C61.7733367,20.7848119 63.2432408,22.3005386 65.5180163,22.3005386 C66.2364855,22.3005386 66.8209644,21.7263613 66.8209644,21.0206656 C66.8209644,20.3155029 66.2364855,19.7415922 65.5180163,19.7415922 C65.191947,19.7415922 64.4335999,19.6147375 64.4335999,18.4390666 L64.4335999,11.4883105 L65.7054431,11.4883105 Z" id="Fill-41" fill="#F16465"></path>
                    </g>
                    <g transform="translate(1.000000, 2.000000)">
                        <path d="M72.9330031,19.7416588 C72.5616058,19.7416588 72.3313766,19.5641689 72.3313766,18.6807168 L72.3313766,3.3230409 C72.3313766,2.58803006 71.7348013,1.99000093 71.0015774,1.99000093 C70.2804497,1.99000093 69.6711135,2.60042237 69.6711135,3.3230409 L69.6711135,18.6807168 C69.6711135,21.0150025 70.8295701,22.300472 72.9330031,22.300472 C73.6369832,22.300472 74.2096317,21.726428 74.2096317,21.0207323 C74.2096317,20.3154363 73.6369832,19.7416588 72.9330031,19.7416588" id="Fill-43" fill="#F16465"></path>
                    </g>
                    <g transform="translate(1.000000, 2.000000)">
                        <path d="M81.2605853,19.9294224 C80.4150382,19.9294224 77.8417091,19.9294224 77.8417091,15.4803148 C77.8417091,14.3864599 77.8417091,11.0574577 81.2605853,11.0574577 C82.1061324,11.0574577 84.6794614,11.0574577 84.6794614,15.4803148 C84.6794614,16.5808324 84.6794614,19.9294224 81.2605853,19.9294224 M81.2605853,8.55234459 C77.3801874,8.55234459 75.1547276,11.0774453 75.1547276,15.4803148 C75.1547276,19.9002405 77.3801874,22.4352017 81.2605853,22.4352017 C85.1981416,22.4352017 87.3665758,19.9652668 87.3665758,15.4803148 C87.3665758,11.0126855 85.1981416,8.55234459 81.2605853,8.55234459" id="Fill-45" fill="#F16465"></path>
                    </g>
                    <g transform="translate(1.000000, 2.000000)">
                        <path d="M95.4113164,11.0574577 C98.3350404,11.0574577 98.5622122,13.5781611 98.5622122,14.3507487 L98.5622122,18.1013561 L98.5323037,18.1497261 C98.2736282,18.5672005 97.2842544,19.9294224 95.4113164,19.9294224 C93.1784127,19.9294224 92.0461426,18.4416783 92.0461426,15.5073647 C92.0461426,14.406714 92.0461426,11.0574577 95.4113164,11.0574577 M95.4113164,8.55234459 C91.5258673,8.55234459 89.3860124,11.0222795 89.3860124,15.5073647 C89.3860124,19.9747276 91.5258673,22.4352017 95.4113164,22.4352017 C96.4477463,22.4352017 97.4318031,22.1613716 98.2570124,21.6434261 L98.5622122,21.4518116 L98.5622122,21.8547617 C98.5622122,23.8395308 97.3955141,24.9325863 95.2770604,24.9325863 C93.7747222,24.9325863 93.0278067,24.3914552 92.4446571,23.8067512 C92.1407865,23.5022733 91.8484806,23.3722206 91.4672466,23.3722206 C90.7485116,23.3722206 90.1636339,23.9583905 90.1636339,24.678877 C90.1636339,24.9556387 90.2521631,25.2169433 90.426563,25.455462 L90.4439764,25.4778482 C91.5206832,26.7763762 93.2370334,27.4915327 95.2770604,27.4915327 C98.9608596,27.4915327 101.249194,25.3316721 101.249194,21.8547617 L101.249194,14.3507487 C101.249194,10.8283998 98.9576693,8.55234459 95.4113164,8.55234459" id="Fill-47" fill="#F16465"></path>
                    </g>
                    <g transform="translate(1.000000, 2.000000)">
                        <path d="M113.23811,8.71399101 C112.489733,8.71399101 111.880928,9.31202014 111.880928,10.047031 L111.880928,17.0670775 C111.880928,18.512048 111.541433,19.8492188 109.079098,19.8492188 C106.616763,19.8492188 106.277401,18.512048 106.277401,17.0670775 L106.277401,10.047031 C106.277401,9.31202014 105.680693,8.71399101 104.94707,8.71399101 C104.201351,8.71399101 103.617271,9.29949458 103.617271,10.047031 L103.617271,17.0670775 C103.617271,20.6792374 105.403806,22.4352151 109.079098,22.4352151 C112.805434,22.4352151 114.541058,20.7293396 114.541058,17.0670775 L114.541058,10.047031 C114.541058,9.31202014 113.95658,8.71399101 113.23811,8.71399101" id="Fill-49" fill="#F16465"></path>
                    </g>
                    <g transform="translate(1.000000, 2.000000)">
                        <path d="M122.418431,11.0574577 C124.229558,11.0574577 125.160577,11.926652 125.348137,13.792828 L125.370335,14.0126917 L119.15468,14.0126917 L119.200407,13.7749724 C119.542162,11.9971416 120.655025,11.0574577 122.418431,11.0574577 M126.390017,18.5850561 C126.036697,18.5850561 125.836775,18.6989854 125.630074,18.8363669 L125.60854,18.8516907 C124.899775,19.383361 124.090384,19.9025057 122.687076,19.9025057 C120.676559,19.9025057 119.385973,18.7304326 119.146306,16.6871664 L119.120252,16.4638382 L126.469906,16.4638382 C127.828018,16.4638382 128.015179,15.4094255 128.015179,14.2698655 C128.015179,12.7859857 127.57147,11.4161686 126.765535,10.4129241 C125.773768,9.17835637 124.311175,8.55234459 122.418431,8.55234459 C118.662453,8.55234459 116.419978,11.1423384 116.419978,15.4803148 C116.419978,19.9652668 118.645704,22.4352017 122.687076,22.4352017 C125.425899,22.4352017 126.932225,21.0647183 127.206453,20.7898221 C127.357723,20.6381828 127.639129,20.3560911 127.639129,19.8373461 C127.639129,19.146841 127.078843,18.5850561 126.390017,18.5850561" id="Fill-51" fill="#F16465"></path>
                    </g>
                </g>
            </g>
        </g>
    </g>
</svg>
